<?xml version="1.0" standalone="no"?>
<!DOCTYPE svg PUBLIC "-//W3C//DTD SVG 20010904//EN"
 "http://www.w3.org/TR/2001/REC-SVG-20010904/DTD/svg10.dtd">
<svg version="1.0" xmlns="http://www.w3.org/2000/svg"
 width="1060.000000pt" height="1060.000000pt" viewBox="0 0 1060.000000 1060.000000"
 preserveAspectRatio="xMidYMid meet">
<metadata>
Created by potrace 1.11, written by Peter Selinger 2001-2013
</metadata>
<g transform="translate(0.000000,1060.000000) scale(0.100000,-0.100000)"
fill="#000000" stroke="none">
<path d="M6515 9391 c-30 -13 -46 -29 -60 -60 -20 -45 -20 -47 16 -376 5 -49
23 -229 39 -400 16 -170 32 -330 35 -355 10 -90 26 -249 40 -395 8 -82 19
-199 25 -258 7 -60 10 -110 8 -112 -2 -1 -123 -5 -270 -7 -264 -3 -268 -3
-268 17 1 23 20 160 45 313 19 119 12 156 -36 197 -40 33 -123 36 -162 5 -29
-23 -53 -83 -62 -155 -10 -84 -56 -379 -60 -383 -5 -5 -826 -22 -835 -17 -4 2
-13 25 -20 50 -16 57 -59 102 -106 111 -77 14 -154 -49 -154 -127 0 -37 -1
-38 -42 -43 -46 -7 -638 -13 -638 -8 0 2 58 97 129 212 72 114 133 219 136
233 10 36 -10 89 -46 123 -25 24 -39 29 -79 29 -34 0 -57 -6 -77 -21 -15 -12
-106 -146 -201 -299 -95 -153 -174 -280 -176 -282 -3 -4 -1289 -33 -1292 -29
-1 0 -104 192 -230 426 -126 233 -241 439 -257 457 -50 57 -140 53 -192 -8
-19 -23 -25 -41 -25 -77 1 -42 24 -90 203 -422 l203 -375 -86 -6 c-47 -4 -317
-9 -600 -13 -283 -4 -543 -9 -578 -12 -77 -8 -121 -35 -141 -87 -15 -41 -13
-53 55 -277 12 -41 57 -194 99 -340 42 -146 85 -292 95 -325 10 -33 53 -179
95 -325 81 -277 214 -732 417 -1425 66 -225 127 -423 137 -440 9 -16 31 -38
48 -48 31 -18 63 -18 1045 -3 557 9 1324 20 1703 26 682 10 2140 31 3355 49
343 6 626 8 629 6 5 -6 -65 -364 -73 -372 -4 -4 -197 -14 -429 -22 l-422 -16
-105 32 c-296 89 -594 68 -868 -62 -140 -67 -223 -127 -377 -276 -134 -131
-670 -621 -684 -626 -6 -3 -342 269 -620 501 -73 61 -164 137 -202 168 -226
187 -550 285 -851 257 -120 -11 -165 -21 -273 -56 -337 -109 -626 -386 -746
-715 -227 -618 67 -1286 676 -1536 156 -64 231 -77 445 -77 181 0 202 2 299
28 114 30 276 102 367 165 91 61 73 45 816 725 l97 89 98 -80 c54 -44 244
-199 423 -346 179 -147 350 -284 380 -304 463 -309 1083 -254 1489 133 191
182 307 397 357 660 23 124 15 375 -15 490 -54 202 -135 355 -272 514 l-61 71
34 0 c18 0 159 5 312 10 311 11 326 15 358 80 9 19 40 161 69 315 28 154 58
300 65 325 8 25 108 707 224 1515 115 809 213 1485 217 1503 8 32 17 38 158
103 516 240 673 316 692 338 69 73 21 197 -79 208 -44 5 -69 -5 -480 -197
l-433 -202 -317 -6 c-175 -2 -318 -2 -318 2 0 3 34 68 76 143 42 75 78 151 81
169 12 72 -55 144 -132 144 -73 0 -90 -19 -220 -252 l-120 -215 -180 -6 c-99
-4 -354 -10 -566 -13 l-386 -7 -6 94 c-3 52 -12 166 -21 254 -9 88 -26 250
-37 360 -11 110 -24 241 -29 290 -6 50 -24 234 -40 410 -44 460 -46 472 -75
511 -15 20 -40 37 -63 44 -48 13 -50 13 -97 -9z m-1478 -2464 c13 -7 49 -55
81 -107 491 -798 612 -1000 612 -1027 0 -20 -96 -194 -315 -569 -174 -296
-323 -545 -332 -551 -21 -16 -73 -16 -94 0 -9 7 -165 250 -348 540 -265 421
-332 534 -329 555 2 15 145 280 317 589 255 457 319 564 340 572 35 13 42 12
68 -2z m2148 -3474 c150 -33 277 -100 392 -207 354 -329 376 -862 49 -1223
-96 -106 -252 -202 -398 -244 -160 -46 -381 -35 -547 27 -99 37 -280 155 -379
247 -48 44 -207 179 -354 299 l-268 219 228 206 c125 114 292 270 372 348 80
78 175 162 212 188 204 145 447 194 693 140z m-3182 -78 c87 -15 200 -55 267
-95 46 -27 633 -494 680 -541 14 -13 69 -60 122 -102 l97 -78 -122 -112 c-67
-62 -187 -171 -267 -244 -80 -72 -176 -163 -215 -202 -38 -39 -74 -71 -80 -71
-6 0 -24 -14 -41 -31 -16 -17 -56 -50 -89 -74 -350 -249 -807 -212 -1110 90
-173 173 -255 370 -255 614 0 535 485 941 1013 846z"/>
<path d="M4972 6638 c-115 -205 -474 -852 -478 -863 -5 -12 495 -823 531 -863
9 -10 66 80 268 426 141 241 257 443 259 448 3 8 -540 904 -547 904 -2 0 -16
-24 -33 -52z"/>
<path d="M2925 8551 c-94 -27 -164 -70 -247 -152 -59 -58 -86 -94 -114 -152
-34 -73 -70 -226 -56 -238 5 -4 1093 15 1145 20 29 3 -25 191 -81 277 -80 122
-226 225 -360 253 -78 16 -217 12 -287 -8z"/>
<path d="M7372 8535 c-66 -19 -104 -38 -167 -85 -54 -40 -131 -142 -121 -158
7 -11 154 -94 331 -187 61 -32 115 -61 120 -65 6 -4 63 -35 127 -69 65 -34
137 -73 160 -86 61 -35 76 -32 98 18 89 201 12 452 -175 571 -27 18 -70 40
-95 50 -62 25 -209 30 -278 11z"/>
<path d="M5245 8307 c-188 -62 -312 -262 -277 -449 6 -34 16 -66 21 -71 7 -7
56 2 148 26 121 33 152 37 251 37 127 0 155 18 35 22 l-78 3 175 49 c96 27
189 54 207 62 l32 13 -13 46 c-31 101 -107 188 -213 240 -49 25 -72 29 -153
32 -59 2 -110 -2 -135 -10z"/>
<path d="M7300 8086 c25 -23 279 -150 287 -143 9 9 15 6 -143 86 -141 71 -171
83 -144 57z"/>
<path d="M7153 8024 c15 -16 401 -223 406 -219 8 9 -10 21 -200 124 -159 87
-231 120 -206 95z"/>
<path d="M7050 7947 c0 -8 14 -42 31 -76 75 -149 240 -251 409 -251 62 0 133
17 125 29 -2 5 -49 34 -102 64 -54 30 -116 65 -138 78 -40 22 -153 85 -252
140 -58 32 -73 35 -73 16z"/>
<path d="M2880 7920 c0 -6 68 -10 185 -10 117 0 185 4 185 10 0 6 -68 10 -185
10 -117 0 -185 -4 -185 -10z"/>
<path d="M5415 7712 c-174 -60 -171 -59 -162 -68 7 -7 336 102 352 117 20 19
-35 5 -190 -49z"/>
<path d="M2810 7750 c0 -6 98 -10 275 -10 177 0 275 4 275 10 0 6 -98 10 -275
10 -177 0 -275 -4 -275 -10z"/>
<path d="M5585 7665 c-38 -12 -124 -39 -190 -59 -66 -20 -131 -42 -145 -48
-24 -11 -24 -11 20 -25 60 -19 169 -11 243 17 40 15 78 41 120 81 71 67 64 71
-48 34z"/>
<path d="M2778 7583 c-49 -2 -88 -7 -88 -11 1 -11 81 -68 135 -95 206 -103
465 -73 625 71 l45 41 -315 -1 c-173 -1 -354 -4 -402 -5z"/>
</g>
</svg>
